<svg width="680" height="800" viewBox="0 0 680 800" fill="none" xmlns="http://www.w3.org/2000/svg">
<path d="M248.531 -130.454C281.961 -167.207 338.855 -169.899 375.607 -136.469L649.857 112.994C686.609 146.424 689.302 203.318 655.872 240.07C622.442 276.822 565.547 279.515 528.795 246.085L254.546 -3.37805C217.793 -36.8084 215.101 -93.7024 248.531 -130.454Z" fill="#D9D9D9"/>
<path d="M248.531 -130.454C281.961 -167.207 338.855 -169.899 375.607 -136.469L649.857 112.994C686.609 146.424 689.302 203.318 655.872 240.07C622.442 276.822 565.547 279.515 528.795 246.085L254.546 -3.37805C217.793 -36.8084 215.101 -93.7024 248.531 -130.454Z" fill="url(#paint0_linear_60_6)"/>
<path d="M-613.473 -396.927C-521.503 -498.035 -364.982 -505.443 -263.874 -413.473L596.789 369.401C697.897 461.371 705.305 617.892 613.335 719.001C521.365 820.109 364.844 827.517 263.736 735.547L-596.927 -47.3272C-698.035 -139.297 -705.443 -295.818 -613.473 -396.927Z" fill="#D9D9D9"/>
<path d="M-613.473 -396.927C-521.503 -498.035 -364.982 -505.443 -263.874 -413.473L596.789 369.401C697.897 461.371 705.305 617.892 613.335 719.001C521.365 820.109 364.844 827.517 263.736 735.547L-596.927 -47.3272C-698.035 -139.297 -705.443 -295.818 -613.473 -396.927Z" fill="url(#paint1_linear_60_6)"/>
<path d="M-284.877 -100.071C-205.456 -187.383 -70.2925 -193.78 17.0196 -114.359L573.354 391.693C660.667 471.114 667.064 606.277 587.643 693.589C508.223 780.902 373.059 787.299 285.747 707.878L-270.588 201.826C-357.9 122.405 -364.297 -12.7585 -284.877 -100.071Z" fill="#D9D9D9"/>
<path d="M-284.877 -100.071C-205.456 -187.383 -70.2925 -193.78 17.0196 -114.359L573.354 391.693C660.667 471.114 667.064 606.277 587.643 693.589C508.223 780.902 373.059 787.299 285.747 707.878L-270.588 201.826C-357.9 122.405 -364.297 -12.7585 -284.877 -100.071Z" fill="url(#paint2_linear_60_6)"/>
<defs>
<linearGradient id="paint0_linear_60_6" x1="334.155" y1="-55.543" x2="860.311" y2="464.627" gradientUnits="userSpaceOnUse">
<stop stop-color="#DFF2FF"/>
<stop offset="0.655068" stop-color="#F9CD6A"/>
</linearGradient>
<linearGradient id="paint1_linear_60_6" x1="-355.982" y1="-170.888" x2="1222.22" y2="1401.69" gradientUnits="userSpaceOnUse">
<stop stop-color="#FAB000"/>
<stop offset="0.19538" stop-color="#FCCA52" stop-opacity="0.974129"/>
<stop offset="0.604167" stop-color="white" stop-opacity="0.92"/>
</linearGradient>
<linearGradient id="paint2_linear_60_6" x1="-101.126" y1="60.0089" x2="1030.62" y2="1169.77" gradientUnits="userSpaceOnUse">
<stop stop-color="#DFF2FF"/>
<stop offset="0.655068" stop-color="#F9CD6A"/>
</linearGradient>
</defs>
</svg>
